<?xml version="1.0" encoding="iso-8859-1"?>
<!-- Generator: Adobe Illustrator 20.1.0, SVG Export Plug-In . SVG Version: 6.00 Build 0)  -->
<svg version="1.1" id="Women-avatar-a-6" xmlns="http://www.w3.org/2000/svg" xmlns:xlink="http://www.w3.org/1999/xlink" x="0px"
	 y="0px" viewBox="0 0 28 32" style="enable-background:new 0 0 28 32;" xml:space="preserve">
<g fill="white" stroke="white">
	<path d="M24,22.659V7.063c0.053-0.465,0.165-2.398-1.317-4.147C21.044,0.981,18.123,0,14,0S6.956,0.981,5.317,2.916
		C3.835,4.665,3.947,6.598,4,7.063v15.596C2.098,23.609,0,25.577,0,29v2c0,0.552,0.448,1,1,1h26c0.552,0,1-0.448,1-1v-2
		C28,25.577,25.902,23.609,24,22.659z M6.869,4.178C8.101,2.753,10.567,2,14,2s5.899,0.753,7.131,2.178
		c1.075,1.243,0.89,2.609,0.883,2.657C22.004,6.89,22,6.945,22,7v14.98l-4-0.8v-1.604c1.763-0.774,3-2.531,3-4.576v-5
		c0-0.552-0.448-1-1-1c-3.387,0-5.1-2.455-5.168-2.555c-0.279-0.419-0.828-0.564-1.279-0.34l-6,3C7.214,9.275,7,9.621,7,10v5
		c0,2.045,1.237,3.802,3,4.576v1.604l-4,0.8V7c0-0.048-0.005-0.107-0.012-0.155C5.979,6.788,5.794,5.421,6.869,4.178z M16,18h-4
		c-1.654,0-3-1.346-3-3v-4.382l4.734-2.367c0.833,0.901,2.582,2.386,5.266,2.693V15C19,16.654,17.654,18,16,18z M16,20v1.837l-2,6
		l-2-6V20H16z M10.655,24.127l1.285,3.854L9.37,25.84L10.655,24.127z M17.345,24.127l1.285,1.713l-2.57,2.142L17.345,24.127z M2,29
		c0-4.098,4.028-4.984,4.196-5.02l2.434-0.487L7.2,25.4c-0.32,0.426-0.25,1.027,0.16,1.368L11.238,30H2V29z M26,30h-9.238
		l3.878-3.232c0.409-0.341,0.479-0.942,0.16-1.368l-1.43-1.906l2.434,0.487C21.975,24.015,26,24.867,26,29V30z"/>
	<rect x="13" y="12" width="2" height="3"/>
</g>
</svg>
