<?xml version="1.0" encoding="iso-8859-1"?>
<!-- Generator: Adobe Illustrator 20.1.0, SVG Export Plug-In . SVG Version: 6.00 Build 0)  -->
<svg version="1.1" id="Women-avatar-d-2" xmlns="http://www.w3.org/2000/svg" xmlns:xlink="http://www.w3.org/1999/xlink" x="0px"
	 y="0px" viewBox="0 0 28 32" style="enable-background:new 0 0 28 32;" xml:space="preserve">
<g>
	<path d="M23.034,22.25l0.964-13.126c0.018-0.143,0.416-3.52-1.915-6.16C20.347,0.997,18,0,14,0c-3.623,0-6.338,0.995-8.071,2.958
		C3.598,5.598,3.99,8.981,4.002,9.071l0.942,13.187C2.875,22.979,0,24.993,0,29v2c0,0.552,0.448,1,1,1h26c0.552,0,1-0.448,1-1v-2
		C28,24.98,25.105,22.964,23.034,22.25z M16,18h-4c-1.654,0-3-1.346-3-3v-4.382l4.542-2.271c0.79,1.454,2.58,4.06,5.458,4.566V15
		C19,16.654,17.654,18,16,18z M12,22v-2h4v2c0,0.477,0.336,0.887,0.804,0.98l2.134,0.427C18.733,24.252,17.845,26,14,26
		s-4.733-1.748-4.938-2.593l2.134-0.427C11.664,22.887,12,22.477,12,22z M7.428,4.281C8.765,2.768,10.976,2,14,2
		c3,0,5.227,0.764,6.569,2.271c1.737,1.951,1.441,4.583,1.433,4.656l-0.941,12.865L18,21.18v-1.604c1.763-0.774,3-2.531,3-4.576v-3
		c0-0.552-0.448-1-1-1c-3.266,0-5.055-4.33-5.072-4.373c-0.104-0.259-0.313-0.463-0.574-0.562c-0.262-0.099-0.551-0.084-0.801,0.04
		l-6,3C7.214,9.275,7,9.621,7,10v5c0,2.045,1.237,3.802,3,4.576v1.604l-3.083,0.617L5.992,8.876C5.989,8.85,5.688,6.253,7.428,4.281
		z M26,30H2v-1c0-4.098,4.028-4.984,4.196-5.02l0.923-0.185C7.464,25.207,8.802,28,14,28s6.537-2.793,6.881-4.204l0.923,0.185
		C21.975,24.015,26,24.867,26,29V30z"/>
	<rect x="13" y="12" width="2" height="3"/>
</g>
</svg>
