<?xml version="1.0" encoding="iso-8859-1"?>
<!-- Generator: Adobe Illustrator 20.1.0, SVG Export Plug-In . SVG Version: 6.00 Build 0)  -->
<svg version="1.1" id="Women-avatar-a-5" xmlns="http://www.w3.org/2000/svg" xmlns:xlink="http://www.w3.org/1999/xlink" x="0px"
	 y="0px" viewBox="0 0 28 32" style="enable-background:new 0 0 28 32;" xml:space="preserve">
<g fill="white" stroke="white">
	<path d="M24,22.659V7.063c0.053-0.465,0.165-2.398-1.317-4.147C21.044,0.981,18.123,0,14,0S6.956,0.981,5.317,2.916
		C3.835,4.665,3.947,6.598,4,7.063v15.596C2.098,23.609,0,25.577,0,29v2c0,0.552,0.448,1,1,1h26c0.552,0,1-0.448,1-1v-2
		C28,25.577,25.902,23.609,24,22.659z M6.869,4.178C8.101,2.753,10.567,2,14,2s5.899,0.753,7.131,2.178
		c1.075,1.243,0.89,2.609,0.883,2.657C22.004,6.89,22,6.945,22,7v14.98l-4-0.8v-1.604c1.763-0.774,3-2.531,3-4.576v-5
		c0-0.552-0.448-1-1-1c-3.387,0-5.1-2.455-5.168-2.555c-0.28-0.419-0.827-0.564-1.279-0.34l-6,3C7.214,9.275,7,9.621,7,10v5
		c0,2.045,1.237,3.802,3,4.576v1.604l-4,0.8V7c0-0.048-0.005-0.107-0.012-0.155C5.979,6.788,5.794,5.421,6.869,4.178z M16,18h-4
		c-1.654,0-3-1.346-3-3v-4.382l4.734-2.367c0.833,0.901,2.582,2.386,5.266,2.693V15C19,16.654,17.654,18,16,18z M16,20v1.586l-2,2
		l-2-2V20H16z M10.671,23.085L13,25.414V27h-0.52l-2.949-3.687L10.671,23.085z M15,25.414l2.329-2.329l1.14,0.228L15.52,27H15
		V25.414z M2,29c0-4.098,4.028-4.984,4.196-5.02l1.127-0.225l3.896,4.87C11.409,28.862,11.696,29,12,29h1v1H2V29z M26,30H15v-1h1
		c0.304,0,0.591-0.138,0.781-0.375l3.896-4.87l1.127,0.225C21.975,24.015,26,24.867,26,29V30z"/>
	<rect x="13" y="12" width="2" height="3"/>
</g>
</svg>
