<?xml version="1.0" encoding="iso-8859-1"?>
<!-- Generator: Adobe Illustrator 20.1.0, SVG Export Plug-In . SVG Version: 6.00 Build 0)  -->
<svg version="1.1" id="Women-avatar-a-7" xmlns="http://www.w3.org/2000/svg" xmlns:xlink="http://www.w3.org/1999/xlink" x="0px"
	 y="0px" viewBox="0 0 28 32" style="enable-background:new 0 0 28 32;" xml:space="preserve">
<g fill="white" stroke="white">
	<path d="M24,22.659V7.063c0.053-0.465,0.165-2.398-1.317-4.147C21.044,0.981,18.123,0,14,0S6.956,0.981,5.317,2.916
		C3.835,4.665,3.947,6.598,4,7.063v15.596C2.098,23.609,0,25.577,0,29v2c0,0.552,0.448,1,1,1h26c0.552,0,1-0.448,1-1v-2
		C28,25.577,25.902,23.609,24,22.659z M6.869,4.178C8.101,2.753,10.567,2,14,2s5.899,0.753,7.131,2.178
		c1.075,1.243,0.89,2.609,0.883,2.657C22.004,6.89,22,6.945,22,7v14.98l-4-0.8v-1.604c1.763-0.774,3-2.531,3-4.576v-5
		c0-0.552-0.448-1-1-1c-3.387,0-5.1-2.455-5.168-2.555c-0.279-0.419-0.828-0.564-1.279-0.34l-6,3C7.214,9.275,7,9.621,7,10v5
		c0,2.045,1.237,3.802,3,4.576v1.604l-4,0.8V7c0-0.048-0.005-0.107-0.012-0.155C5.979,6.788,5.794,5.421,6.869,4.178z M22,30H6v-1.4
		c2.502-1.413,4.194-3.493,5.102-4.837C11.746,24.388,12.706,25,14,25s2.254-0.612,2.898-1.237c0.908,1.344,2.6,3.424,5.102,4.837
		V30z M16,18h-4c-1.654,0-3-1.346-3-3v-4.382l4.734-2.367c0.833,0.901,2.582,2.386,5.266,2.693V15C19,16.654,17.654,18,16,18z
		 M16,20v1.723C15.752,22.106,15.063,23,14,23c-1.065,0-1.755-0.896-2-1.275V20H16z M2,29c0-4.098,4.028-4.984,4.196-5.02
		l2.66-0.532c-0.926,1.194-2.36,2.686-4.304,3.657C4.214,27.275,4,27.621,4,28v2H2V29z M26,30h-2v-2
		c0-0.379-0.214-0.726-0.553-0.896c-1.932-0.966-3.367-2.458-4.297-3.655l2.653,0.531C21.975,24.015,26,24.867,26,29V30z"/>
	<rect x="13" y="12" width="2" height="3"/>
</g>
</svg>
