<?xml version="1.0" encoding="iso-8859-1"?>
<!-- Generator: Adobe Illustrator 20.1.0, SVG Export Plug-In . SVG Version: 6.00 Build 0)  -->
<svg version="1.1" id="Women-avatar-b-5" xmlns="http://www.w3.org/2000/svg" xmlns:xlink="http://www.w3.org/1999/xlink" x="0px"
	 y="0px" viewBox="0 0 28 32" style="enable-background:new 0 0 28 32;" xml:space="preserve">
<g>
	<path d="M22.196,22.02L18,21.18v-1.604c0.36-0.158,0.69-0.367,1-0.602V19h4c0.552,0,1-0.448,1-1V9c0-0.09-0.114-9-10-9S4,8.91,4,9
		v9c0,0.552,0.448,1,1,1h4v-0.026c0.31,0.235,0.64,0.444,1,0.602v1.604L5.804,22.02C3.796,22.421,0,24.396,0,29v2
		c0,0.552,0.448,1,1,1h26c0.552,0,1-0.448,1-1v-2C28,24.396,24.204,22.421,22.196,22.02z M18.469,23.313L15.52,27H15v-1.586
		l2.329-2.329L18.469,23.313z M6,9c0-0.286,0.091-7,8-7c7.861,0,7.998,6.717,8,7v8h-1.424C20.846,16.386,21,15.712,21,15v-5
		c0-0.552-0.448-1-1-1c-3.387,0-5.1-2.455-5.168-2.555c-0.28-0.419-0.827-0.564-1.279-0.34l-6,3C7.214,9.275,7,9.621,7,10v5
		c0,0.712,0.154,1.386,0.424,2H6V9z M9,15v-4.382l4.734-2.367c0.833,0.901,2.582,2.386,5.266,2.693V15c0,1.654-1.346,3-3,3h-4
		C10.346,18,9,16.654,9,15z M16,20v1.586l-2,2l-2-2V20H16z M10.671,23.085L13,25.414V27h-0.52l-2.949-3.687L10.671,23.085z M2,29
		c0-4.098,4.028-4.984,4.196-5.02l1.127-0.225l3.896,4.87C11.409,28.862,11.696,29,12,29h1v1H2V29z M26,30H15v-1h1
		c0.304,0,0.591-0.138,0.781-0.375l3.896-4.87l1.127,0.225C21.975,24.015,26,24.867,26,29V30z"/>
	<rect x="13" y="12" width="2" height="3"/>
</g>
</svg>
