<?xml version="1.0" encoding="iso-8859-1"?>
<!-- Generator: Adobe Illustrator 20.1.0, SVG Export Plug-In . SVG Version: 6.00 Build 0)  -->
<svg version="1.1" id="Man-avatar-b-3" xmlns="http://www.w3.org/2000/svg" xmlns:xlink="http://www.w3.org/1999/xlink" x="0px"
	 y="0px" viewBox="0 0 28 32" style="enable-background:new 0 0 28 32;" xml:space="preserve">
<g>
	<path d="M22.196,22.02L18,21.18v-1.281c2.279-0.465,4-2.484,4-4.899V5c0-0.082-0.01-0.163-0.03-0.243C21.921,4.563,20.704,0,14,0
		S6.079,4.563,6.03,4.757C6.01,4.837,6,4.918,6,5v10c0,2.414,1.721,4.434,4,4.899v1.281L5.804,22.02C3.796,22.421,0,24.396,0,29v2
		c0,0.552,0.448,1,1,1h26c0.552,0,1-0.448,1-1v-2C28,24.396,24.204,22.421,22.196,22.02z M21,23.82V30H7v-6.18l3.307-0.661
		C10.767,24.074,11.827,25,14,25s3.233-0.926,3.693-1.842L21,23.82z M16,21.975C15.988,22.152,15.832,23,14,23s-1.988-0.848-2-1.025
		V20h4V21.975z M8,5.152C8.198,4.592,9.367,2,14,2s5.802,2.592,6,3.152v3.522l-5.725-1.636c-0.349-0.1-0.726-0.003-0.982,0.254
		C12.174,8.412,9.625,8.833,8,8.957V5.152z M8,15v-4.036c1.548-0.1,4.453-0.473,6.246-1.853L20,10.754V15c0,1.654-1.346,3-3,3h-6
		C9.346,18,8,16.654,8,15z M2,29c0-2.71,1.758-4.011,3-4.594V30H2V29z M26,30h-3v-5.603c1.242,0.576,3,1.869,3,4.603V30z"/>
	<rect x="13" y="12" width="2" height="3"/>
</g>
</svg>
