<?xml version="1.0" encoding="iso-8859-1"?>
<!-- Generator: Adobe Illustrator 20.1.0, SVG Export Plug-In . SVG Version: 6.00 Build 0)  -->
<svg version="1.1" id="Man-avatar-d-7" xmlns="http://www.w3.org/2000/svg" xmlns:xlink="http://www.w3.org/1999/xlink" x="0px"
	 y="0px" viewBox="0 0 28 32" style="enable-background:new 0 0 28 32;" xml:space="preserve">
<g>
	<path d="M22.196,22.02L18,21.18v-1.281c2.279-0.465,4-2.484,4-4.899V1c0-0.552-0.448-1-1-1H7C6.448,0,6,0.448,6,1v14
		c0,2.414,1.721,4.434,4,4.899v1.281L5.804,22.02C3.796,22.421,0,24.396,0,29v2c0,0.552,0.448,1,1,1h26c0.552,0,1-0.448,1-1v-2
		C28,24.396,24.204,22.421,22.196,22.02z M19,23.42V26H9v-2.58l1.307-0.261C10.767,24.074,11.827,25,14,25s3.233-0.926,3.693-1.842
		L19,23.42z M16,21.975C15.988,22.152,15.832,23,14,23s-1.988-0.848-2-1.025V20h4V21.975z M20,2v6.923
		c-3.026-0.425-5.27-2.607-5.293-2.63c-0.29-0.289-0.726-0.374-1.101-0.212L8,8.484V2H20z M8,15v-4.341l5.809-2.489
		c0.979,0.819,3.264,2.456,6.191,2.775V15c0,1.654-1.346,3-3,3h-6C9.346,18,8,16.654,8,15z M7,23.82V27c0,0.552,0.448,1,1,1h12
		c0.552,0,1-0.448,1-1v-3.18l0.804,0.161C21.823,23.984,21.896,24,22,24.028V30H6v-5.97c0.104-0.029,0.177-0.045,0.196-0.049
		L7,23.82z M2,29c0-2.026,0.984-3.264,2-4.006V30H2V29z M26,30h-2v-5.02c1.016,0.737,2,1.977,2,4.02V30z"/>
	<rect x="13" y="12" width="2" height="3"/>
</g>
</svg>
