<?xml version="1.0" encoding="iso-8859-1"?>
<!-- Generator: Adobe Illustrator 20.1.0, SVG Export Plug-In . SVG Version: 6.00 Build 0)  -->
<svg version="1.1" id="Man-avatar-c-10" xmlns="http://www.w3.org/2000/svg" xmlns:xlink="http://www.w3.org/1999/xlink" x="0px"
	 y="0px" viewBox="0 0 28 32" style="enable-background:new 0 0 28 32;" xml:space="preserve">
<path d="M22.196,22.02L18,21.18v-1.281c2.279-0.465,4-2.484,4-4.899V5c0-0.082-0.01-0.163-0.03-0.243C21.921,4.563,20.704,0,14,0
	S6.079,4.563,6.03,4.757C6.01,4.837,6,4.918,6,5v10c0,2.414,1.721,4.434,4,4.899v1.281L5.804,22.02C3.796,22.421,0,24.396,0,29v2
	c0,0.552,0.448,1,1,1h26c0.552,0,1-0.448,1-1v-2C28,24.396,24.204,22.421,22.196,22.02z M19.972,23.614L14,29.586l-5.972-5.972
	l2.279-0.456C10.767,24.074,11.827,25,14,25s3.233-0.926,3.693-1.842L19.972,23.614z M16,21.975C15.988,22.152,15.832,23,14,23
	s-1.988-0.848-2-1.025V20h4V21.975z M13,11v1h-1c-0.265,0-0.52,0.105-0.707,0.293L10,13.586l-2-2V8.158
	c1.619,0.18,4.449,0.256,6.238-1.05L20,8.754v2.832l-2,2l-1.293-1.293C16.52,12.105,16.265,12,16,12h-1v-1H13z M14,2
	c4.649,0,5.81,2.61,6,3.149v1.525l-5.725-1.636c-0.349-0.101-0.725-0.003-0.982,0.254C12.203,6.382,9.547,6.324,8,6.141V5.152
	C8.198,4.592,9.367,2,14,2z M8,15v-0.586l1.293,1.293C9.488,15.902,9.744,16,10,16s0.512-0.098,0.707-0.293L12.414,14H14h1.586
	l1.707,1.707C17.488,15.902,17.744,16,18,16s0.512-0.098,0.707-0.293L20,14.414V15c0,1.654-1.346,3-3,3h-6C9.346,18,8,16.654,8,15z
	 M2,29c0-3.292,2.596-4.509,3.706-4.88l5.88,5.88H2V29z M26,30h-9.586l5.883-5.883C23.409,24.48,26,25.682,26,29V30z"/>
</svg>
