<?xml version="1.0" encoding="iso-8859-1"?>
<!-- Generator: Adobe Illustrator 20.1.0, SVG Export Plug-In . SVG Version: 6.00 Build 0)  -->
<svg version="1.1" id="Man-avatar-a-8" xmlns="http://www.w3.org/2000/svg" xmlns:xlink="http://www.w3.org/1999/xlink" x="0px"
	 y="0px" viewBox="0 0 28 32" style="enable-background:new 0 0 28 32;" xml:space="preserve">
<g>
	<path d="M22.196,22.02L18,21.18v-1.281c2.279-0.465,4-2.484,4-4.899V1c0-0.552-0.448-1-1-1h-7C6.091,0,6,4.796,6,5v10
		c0,2.414,1.721,4.434,4,4.899v1.281L5.804,22.02C3.796,22.421,0,24.396,0,29v2c0,0.552,0.448,1,1,1h26c0.552,0,1-0.448,1-1v-2
		C28,24.396,24.204,22.421,22.196,22.02z M14,23c-1.832,0-1.988-0.848-2-1.025V20h4v1.975C15.988,22.152,15.832,23,14,23z M8,5.018
		C8.004,4.895,8.18,2,14,2h6v6.674l-5.725-1.636c-0.35-0.099-0.726-0.003-0.982,0.254C12.174,8.412,9.625,8.833,8,8.957V5.018z
		 M8,15v-4.036c1.548-0.1,4.453-0.473,6.246-1.853L20,10.754V15c0,1.654-1.346,3-3,3h-6C9.346,18,8,16.654,8,15z M2,29
		c0-4.098,4.028-4.984,4.196-5.02l4.111-0.822C10.69,23.92,11.489,24.683,13,24.92V26h-1v2h1v2H2V29z M26,30H15v-2h1v-2h-1v-1.08
		c1.511-0.237,2.31-1,2.693-1.762l4.111,0.822C21.975,24.015,26,24.867,26,29V30z"/>
	<rect x="13" y="12" width="2" height="3"/>
</g>
</svg>
