<?xml version="1.0" encoding="iso-8859-1"?>
<!-- Generator: Adobe Illustrator 20.1.0, SVG Export Plug-In . SVG Version: 6.00 Build 0)  -->
<svg version="1.1" id="Man-avatar-a-5" xmlns="http://www.w3.org/2000/svg" xmlns:xlink="http://www.w3.org/1999/xlink" x="0px"
	 y="0px" viewBox="0 0 28 32" style="enable-background:new 0 0 28 32;" xml:space="preserve">
<g>
	<path d="M22.196,22.02L18,21.18v-1.281c2.279-0.465,4-2.484,4-4.899V1c0-0.552-0.448-1-1-1h-7C6.091,0,6,4.796,6,5v10
		c0,2.414,1.721,4.434,4,4.899v1.281L5.804,22.02C3.796,22.421,0,24.396,0,29v2c0,0.552,0.448,1,1,1h26c0.552,0,1-0.448,1-1v-2
		C28,24.396,24.204,22.421,22.196,22.02z M18.469,23.313L15.52,27H15v-1.586l2.329-2.329L18.469,23.313z M12,20h4v1.586l-2,2l-2-2
		V20z M8,5.018C8.004,4.895,8.18,2,14,2h6v6.674l-5.725-1.636c-0.35-0.099-0.725-0.003-0.982,0.254
		C12.174,8.412,9.625,8.833,8,8.957V5.018z M8,15v-4.036c1.548-0.1,4.453-0.473,6.246-1.853L20,10.754V15c0,1.654-1.346,3-3,3h-6
		C9.346,18,8,16.654,8,15z M10.671,23.085L13,25.414V27h-0.52l-2.949-3.687L10.671,23.085z M2,29c0-4.098,4.028-4.984,4.196-5.02
		l1.127-0.225l3.896,4.87C11.409,28.862,11.696,29,12,29h1v1H2V29z M26,30H15v-1h1c0.304,0,0.591-0.138,0.781-0.375l3.896-4.87
		l1.127,0.225C21.975,24.015,26,24.867,26,29V30z"/>
	<rect x="13" y="12" width="2" height="3"/>
</g>
</svg>
