<?xml version="1.0" encoding="iso-8859-1"?>
<!-- Generator: Adobe Illustrator 20.1.0, SVG Export Plug-In . SVG Version: 6.00 Build 0)  -->
<svg version="1.1" id="Women-avatar-b-7" xmlns="http://www.w3.org/2000/svg" xmlns:xlink="http://www.w3.org/1999/xlink" x="0px"
	 y="0px" viewBox="0 0 28 32" style="enable-background:new 0 0 28 32;" xml:space="preserve">
<g>
	<path d="M22.196,22.02L18,21.18v-1.604c0.36-0.158,0.69-0.367,1-0.602V19h4c0.552,0,1-0.448,1-1V9c0-0.09-0.114-9-10-9S4,8.91,4,9
		v9c0,0.552,0.448,1,1,1h4v-0.026c0.31,0.235,0.64,0.444,1,0.602v1.604L5.804,22.02C3.796,22.421,0,24.396,0,29v2
		c0,0.552,0.448,1,1,1h26c0.552,0,1-0.448,1-1v-2C28,24.396,24.204,22.421,22.196,22.02z M22,30H6v-1.4
		c2.502-1.413,4.194-3.493,5.102-4.837C11.746,24.388,12.706,25,14,25s2.254-0.612,2.898-1.237c0.908,1.344,2.6,3.424,5.102,4.837
		V30z M6,9c0-0.286,0.091-7,8-7c7.861,0,7.998,6.717,8,7v8h-1.424C20.846,16.386,21,15.712,21,15v-5c0-0.552-0.448-1-1-1
		c-3.387,0-5.1-2.455-5.168-2.555c-0.279-0.419-0.828-0.564-1.279-0.34l-6,3C7.214,9.275,7,9.621,7,10v5
		c0,0.712,0.154,1.386,0.424,2H6V9z M9,15v-4.382l4.734-2.367c0.833,0.901,2.582,2.386,5.266,2.693V15c0,1.654-1.346,3-3,3h-4
		C10.346,18,9,16.654,9,15z M16,20v1.723C15.752,22.106,15.063,23,14,23c-1.065,0-1.755-0.896-2-1.275V20H16z M2,29
		c0-4.098,4.028-4.984,4.196-5.02l2.66-0.532c-0.926,1.194-2.36,2.686-4.304,3.657C4.214,27.275,4,27.621,4,28v2H2V29z M26,30h-2v-2
		c0-0.379-0.214-0.726-0.553-0.896c-1.932-0.966-3.367-2.458-4.297-3.655l2.653,0.531C21.975,24.015,26,24.867,26,29V30z"/>
	<rect x="13" y="12" width="2" height="3"/>
</g>
</svg>
