<?xml version="1.0" encoding="iso-8859-1"?>
<!-- Generator: Adobe Illustrator 20.1.0, SVG Export Plug-In . SVG Version: 6.00 Build 0)  -->
<svg version="1.1" id="Women-avatar-b-8" xmlns="http://www.w3.org/2000/svg" xmlns:xlink="http://www.w3.org/1999/xlink" x="0px"
	 y="0px" viewBox="0 0 28 32" style="enable-background:new 0 0 28 32;" xml:space="preserve">
<g>
	<path d="M22.196,22.02L18,21.18v-1.604c0.36-0.158,0.69-0.367,1-0.602V19h4c0.552,0,1-0.448,1-1V9c0-0.09-0.114-9-10-9S4,8.91,4,9
		v9c0,0.552,0.448,1,1,1h4v-0.026c0.31,0.235,0.64,0.444,1,0.602v1.604L5.804,22.02C3.796,22.421,0,24.396,0,29v2
		c0,0.552,0.448,1,1,1h26c0.552,0,1-0.448,1-1v-2C28,24.396,24.204,22.421,22.196,22.02z M6,9c0-0.286,0.091-7,8-7
		c7.861,0,7.998,6.717,8,7v8h-1.424C20.846,16.386,21,15.712,21,15v-5c0-0.552-0.448-1-1-1c-3.387,0-5.1-2.455-5.168-2.555
		c-0.279-0.419-0.828-0.564-1.279-0.34l-6,3C7.214,9.275,7,9.621,7,10v5c0,0.712,0.154,1.386,0.424,2H6V9z M9,15v-4.382l4.734-2.367
		c0.833,0.901,2.582,2.386,5.266,2.693V15c0,1.654-1.346,3-3,3h-4C10.346,18,9,16.654,9,15z M6.196,23.98l5-1
		C11.664,22.887,12,22.477,12,22v-2h4v2c0,0.477,0.336,0.887,0.804,0.98l5,1c0.118,0.023,2.047,0.432,3.248,2.02H2.962
		C4.165,24.428,6.081,24.005,6.196,23.98z M26,30H2v-1c0-0.36,0.041-0.688,0.097-1h23.807C25.96,28.312,26,28.639,26,29V30z"/>
	<rect x="13" y="12" width="2" height="3"/>
</g>
</svg>
