<svg width="520" height="140" viewBox="0 0 520 140" xmlns="http://www.w3.org/2000/svg" role="img" aria-label="DutchLex logo high contrast for blue background">
  <!-- ===== Icon ===== -->
  <g transform="translate(18,24)">

    <!-- Open book (shifted to cyan-blue) -->
    <path d="M18 72 Q60 56 102 72 V92 Q60 80 18 92 Z" fill="#4FA3D1"></path>
    <path d="M102 72 Q144 56 186 72 V92 Q144 80 102 92 Z" fill="#63B3E3"></path>

    <!-- Data bars (steel / mint contrast) -->
    <rect x="96" y="46" width="12" height="28" rx="3" fill="#C9D6E3"></rect>
    <rect x="114" y="34" width="12" height="40" rx="3" fill="#8FB6D8"></rect>
    <rect x="132" y="22" width="12" height="52" rx="3" fill="#2EC4B6"></rect>

    <!-- Data fragments -->
    <circle cx="102" cy="40" r="2" fill="#E6F2FA"></circle>
    <rect x="110" y="26" width="4" height="4" rx="1" fill="#C7EDE6"></rect>
    <circle cx="120" cy="30" r="1.8" fill="#E6F2FA"></circle>
    <rect x="136" y="16" width="4" height="4" rx="1" fill="#C7EDE6"></rect>
    <circle cx="144" cy="18" r="1.8" fill="#E6F2FA"></circle>

    <!-- Windmill base -->
    <polygon points="44,46 54,34 64,46" fill="#F07C87"></polygon>
    <rect x="44" y="46" width="20" height="26" rx="3" fill="#FF8F99"></rect>

    <!-- Windmill blades (near-white for contrast) -->
    <g transform="translate(54,46)">
      <rect x="-3" y="-28" width="6" height="24" rx="2" fill="#F2F6FA"></rect>
      <rect x="-3" y="4" width="6" height="24" rx="2" fill="#D6E4F0"></rect>
      <rect x="-28" y="-3" width="24" height="6" rx="2" fill="#F2F6FA"></rect>
      <rect x="4" y="-3" width="24" height="6" rx="2" fill="#D6E4F0"></rect>
      <circle cx="0" cy="0" r="3.5" fill="#FFFFFF"></circle>
    </g>

  </g>

  <!-- ===== Text ===== -->
  <text x="230" y="92" font-size="56" font-weight="700" fill="#FFFFFF" font-family="Inter, system-ui, -apple-system, BlinkMacSystemFont, sans-serif">
    Dutch
  </text>

  <text x="370" y="92" font-size="56" font-weight="700" fill="#7FE0D4" font-family="Inter, system-ui, -apple-system, BlinkMacSystemFont, sans-serif">
    Lex
  </text>
</svg>
